# xmcd CD database file
#
# Track frame offsets:
#	150
#	11785
#	22567
#	34920
#	48762
#	56470
#	67445
#	84350
#	96497
#	113577
#	124247
#	138312
#	144610
#	156177
#	170547
#
# Disc length: 2542 seconds
#
# Revision: 0
# Processed by: cddbd v1.5.2PL0 Copyright (c) Steve Scherf et al.
# Submitted via: CDex 1.51
#
DISCID=c909ec0f
DTITLE=M-ak - Zuloa
DYEAR=1987
DGENRE=Euskal Herriko Rock Gogorra
TTITLE0=Egunero
TTITLE1=Sugearen Tentaldia
TTITLE2=Negoziaketa
TTITLE3=Aukera Nazazu
TTITLE4=ET
TTITLE5=Bizitzaren Bat
TTITLE6=Sabeliztuna
TTITLE7=Milenioa
TTITLE8=Egia
TTITLE9=Zuloa
TTITLE10=Chomsky
TTITLE11=Juan Pauloren Bidaiak
TTITLE12=Jaungoikoa Bat Ala Hiru
TTITLE13=Urteurrena
TTITLE14=Milenioa Remix
EXTD=YEAR: 1987
EXTT0=
EXTT1=
EXTT2=
EXTT3=
EXTT4=
EXTT5=
EXTT6=
EXTT7=
EXTT8=
EXTT9=
EXTT10=
EXTT11=
EXTT12=
EXTT13=
EXTT14=
PLAYORDER=
